<?xml version="1.0" encoding="UTF-8"?>
<svg width="1439px" height="1173px" viewBox="0 0 1439 1173" version="1.1" xmlns="http://www.w3.org/2000/svg"
     xmlns:xlink="http://www.w3.org/1999/xlink">
    <!-- Generator: sketchtool 41.2 (35397) - http://www.bohemiancoding.com/sketch -->
    <title>B1EE2C00-6490-420B-ADED-DA253DD3B3F7</title>
    <desc>Created with sketchtool.</desc>
    <defs>
        <polygon id="path-1"
                 points="1.60354996e-19 0.761522892 1.60354996e-19 411.408498 78.9521225 411.408498 78.9521225 0.761522892 0 0.761522892"></polygon>
        <polygon id="path-3"
                 points="213.569692 0.0641492778 0.486527978 0.0641492778 0.486527978 1172.3541 213.569692 1172.3541 213.569692 0.0641492778"></polygon>
        <polygon id="path-5"
                 points="524.490342 0.0641492778 0.211846219 0.0641492778 0.211846219 780.003768 524.490342 780.003768 524.490342 0.0641492778"></polygon>
        <polygon id="path-7"
                 points="165.362851 0.0641492778 0.0166163984 0.0641492778 0.0166163984 239.368695 165.362851 239.368695 165.362851 0.0641492778"></polygon>
        <polygon id="path-9"
                 points="146.541875 0.0641492778 0.693589909 0.0641492778 0.693589909 1172.35686 146.541875 1172.35686 146.541875 0.0641492778"></polygon>
        <polygon id="path-11"
                 points="114.326667 0.0641492778 0.9104462 0.0641492778 0.9104462 1172.35962 114.326667 1172.35962 114.326667 0.0641492778"></polygon>
        <polygon id="path-13"
                 points="131.485345 0.0641492778 0.892317768 0.0641492778 0.892317768 1172.35962 131.485345 1172.35962 131.485345 0.0641492778"></polygon>
        <polygon id="path-15"
                 points="173.650045 0.0641492778 0.49349862 0.0641492778 0.49349862 1172.35134 173.650045 1172.35134"></polygon>
        <polygon id="path-17"
                 points="215.517404 0.0641492778 0.291605435 0.0641492778 0.291605435 1172.3541 215.517404 1172.3541"></polygon>
        <polygon id="path-19"
                 points="224.764993 0.0641492778 0.51696193 0.0641492778 0.51696193 1172.35686 224.764993 1172.35686 224.764993 0.0641492778"></polygon>
        <polygon id="path-21"
                 points="217.993067 0.0641492778 0.857315417 0.0641492778 0.857315417 1172.36513 217.993067 1172.36513"></polygon>
        <polygon id="path-23"
                 points="146.818105 0.0641492778 0.617005293 0.0641492778 0.617005293 1172.35686 146.818105 1172.35686 146.818105 0.0641492778"></polygon>
        <polygon id="path-25"
                 points="277.719663 0.0641492778 0.149132796 0.0641492778 0.149132796 1134.51124 277.719663 1134.51124 277.719663 0.0641492778"></polygon>
        <polygon id="path-27"
                 points="221.852834 0.0641492778 0.323386559 0.0641492778 0.323386559 819.931994 221.852834 819.931994 221.852834 0.0641492778"></polygon>
        <polygon id="path-29"
                 points="167.216733 0.0641492778 0.0408465026 0.0641492778 0.0408465026 677.78751 167.216733 677.78751 167.216733 0.0641492778"></polygon>
        <polygon id="path-31"
                 points="81.0999592 0.0641492778 0.0844261022 0.0641492778 0.0844261022 365.453619 81.0999592 365.453619"></polygon>
    </defs>
    <g id="Main" stroke="none" stroke-width="1" fill="none" fill-rule="evenodd">
        <g id="Homepage#3" transform="translate(0.000000, -1770.000000)">
            <g id="Page-1" transform="translate(0.000000, 1770.288429)">
                <path d="M36.5257245,1172.38515 L40.7734521,1172.38515 C31.7337199,1067.78561 14.6718168,977.033372 0,912.844784 L0,932.981299 C13.5595984,995.101067 28.3024079,1078.04696 36.5257245,1172.38515"
                      id="Fill-1" fill="#F4F1ED"></path>
                <g id="Group-5" transform="translate(0.000000, 760.976649)">
                    <mask id="mask-2" fill="white">
                        <use xlink:href="#path-1"></use>
                    </mask>
                    <g id="Clip-4"></g>
                    <path d="M34.2504097,124.642464 C20.12287,64.5639313 6.63426425,21.0083745 -0.00354963309,0.761522892 L-0.00354963309,15.6846111 C7.22586977,38.6347208 18.5728636,77.2251097 30.3813096,127.428475 C46.1653448,194.540995 65.6055021,294.920141 74.7043949,411.408498 L78.9521225,411.408498 C69.8295654,293.734018 50.1882623,192.361838 34.2504097,124.642464"
                          id="Fill-3" fill="#F4F1ED" mask="url(#mask-2)"></path>
                </g>
                <path d="M0.00118321103,639.233686 C11.5966513,668.831604 55.7895833,793.126309 146.43538,1172.38239 L150.978911,1172.38239 C43.3658675,721.903733 0.569124506,628.062058 0.119504314,627.124193 L0.00118321103,627.262115 L0.00118321103,639.233686 Z"
                      id="Fill-6" fill="#F4F1ED"></path>
                <path d="M115.664794,885.983225 C103.110925,826.925311 90.1547645,765.881329 74.4535541,710.685212 C43.0747976,600.37573 12.654442,549.731017 0.00591605516,531.911581 L0.00591605516,541.483321 C13.624675,562.061184 41.9625792,612.926571 70.6436146,713.77465 C86.2620002,768.639756 99.1826647,829.518232 111.701037,888.383057 C132.73853,987.410573 154.403124,1089.33444 190.207089,1172.39066 L195.436882,1172.39066 C158.887493,1089.38961 136.962593,986.196866 115.664794,885.983225"
                      id="Fill-8" fill="#F4F1ED"></path>
                <path d="M193.798135,1025.441 C162.478539,925.144609 130.41352,792.878051 98.4786541,632.33762 C72.2586977,500.457241 10.1401185,412.628937 0,398.974725 L0,408.132701 C15.1805975,429.455339 70.3063995,513.035667 94.4794008,634.599529 C126.497091,795.498556 158.644935,928.123709 190.07102,1028.75111 C213.545927,1103.94582 232.264325,1147.33588 246.131559,1172.38239 L252.000285,1172.38239 C234.796397,1142.86722 214.563488,1091.94667 193.798135,1025.441"
                      id="Fill-10" fill="#F4F1ED"></path>
                <g id="Group-14" transform="translate(0.000000, 306.120746)" fill="#F4F1ED">
                    <path d="M297.537345,841.833017 C271.589527,789.919428 184.659013,551.481028 123.534331,269.459487 C102.201036,171.066408 69.6627327,102.960854 46.1168332,63.1567579 C22.4052841,23.0492344 3.30825804,3.29889954 0.00709926619,0.0163718259 L0.00709926619,8.37440458 C6.25445351,15.0497971 23.257196,34.5518735 43.2534625,68.3701842 C66.4680629,107.65018 98.544914,174.845453 119.582406,271.914487 C180.88457,554.763556 268.217376,794.222573 294.319011,846.43959 C297.856812,853.501162 301.512934,860.121386 305.216385,866.272677 L311.321754,866.272677 C306.612574,858.85251 301.998051,850.742735 297.537345,841.833017"
                          id="Fill-12"></path>
                </g>
                <g id="Group-17" transform="translate(488.633981, 0.022773)">
                    <mask id="mask-4" fill="white">
                        <use xlink:href="#path-3"></use>
                    </mask>
                    <g id="Clip-16"></g>
                    <path d="M169.389903,271.010607 C156.208932,299.063806 142.578341,328.05487 131.349668,366.562506 C94.4571481,493.091537 128.888589,755.27999 145.441711,881.257335 C146.932557,892.677221 148.281418,902.966153 149.429133,911.903455 C155.80664,962.217157 151.050132,1003.89698 136.058848,1029.30209 C125.338956,1047.42496 110.406833,1055.17614 96.0781472,1050.01788 C80.8738854,1044.55619 67.8230678,1044.22518 53.577207,1060.38956 C39.9347838,1075.86434 25.7244193,1105.46225 6.08311616,1159.41708 C4.37929227,1164.1064 2.49798673,1168.40955 0.486527978,1172.3541 L5.9056345,1172.3541 C7.21899875,1169.43017 8.48503455,1166.36831 9.66824558,1163.14095 C49.400472,1054.0176 67.0303164,1046.84569 95.1907389,1056.96911 C110.939278,1062.62389 127.314918,1054.15552 139.04054,1034.32243 C155.073049,1007.15193 160.231849,963.155022 153.534875,910.441489 C152.38716,901.449018 151.0383,891.132503 149.535622,879.712616 C133.112652,754.507631 98.8941894,493.974233 135.124111,369.707113 C146.16347,331.889083 159.652076,303.201446 172.691061,275.42409 C189.196855,240.309318 204.791577,207.125446 210.849617,162.383766 C216.895826,117.835175 212.920237,65.8112485 198.343077,0.0503571446 L193.835043,0.0503571446 C227.095105,148.150284 201.490418,202.684379 169.389903,271.010607"
                          id="Fill-15" fill="#F4F1ED" mask="url(#mask-4)"></path>
                </g>
                <path d="M312.570041,1043.4618 C305.802074,1023.35287 300.737931,1000.95445 294.869204,975.025238 C281.711898,916.794851 265.324425,844.330983 218.895224,751.372005 C170.549221,654.578814 141.880018,545.758882 108.714613,390.459462 C87.7362812,292.17672 59.5285302,228.953581 39.5677601,193.231956 C17.8440056,154.393309 1.30271535,139.056457 0.616452947,138.422019 L0.00118321103,140.325333 L0.00118321103,146.062861 C9.72717789,156.103534 68.2961239,222.167852 104.762688,392.859293 C138.093743,548.903489 166.916763,658.357858 215.688722,755.978577 C261.644639,847.99969 277.878294,919.856705 290.940944,977.56299 C296.868831,1003.79563 301.980303,1026.41473 308.913919,1046.99259 C323.621232,1090.60331 345.569797,1131.42803 370.748528,1161.96381 C373.777548,1165.63252 376.830232,1169.10814 379.871085,1172.39066 L388.035241,1172.39066 C358.691607,1143.31685 330.507521,1096.67185 312.570041,1043.4618"
                      id="Fill-18" fill="#F4F1ED"></path>
                <g id="Group-22" transform="translate(81.034522, 0.022773)">
                    <mask id="mask-6" fill="white">
                        <use xlink:href="#path-5"></use>
                    </mask>
                    <g id="Clip-21"></g>
                    <path d="M498.521172,151.165244 C474.182521,183.356083 464.610344,256.702648 447.20531,389.879487 L444.188121,412.967518 C431.184632,512.270877 421.624287,510.615821 413.945248,509.291777 C409.863169,508.60217 405.236814,507.802226 401.1784,518.17391 C386.70773,555.21958 385.784825,606.305642 384.956577,651.323165 C383.986344,705.057316 383.146264,751.454052 362.203429,766.983994 C350.785443,775.452364 338.018596,774.790342 324.281516,764.997927 C290.500841,740.944447 259.583536,668.839174 246.497222,610.084686 C242.39148,591.603228 230.145246,580.735027 215.98221,568.156601 C201.594364,555.385086 185.277884,540.903346 174.427838,515.305147 C171.647293,508.712507 170.014461,497.623632 167.955674,483.555656 C162.489239,446.372065 154.218594,390.210498 113.646288,334.986796 C85.0362451,296.010228 23.78141,71.2812086 4.83820135,0.031048158 L0.211846219,0.031048158 C18.3268071,68.5779504 80.8595101,299.485845 110.995895,340.50365 C150.479647,394.237801 158.537314,449.020154 163.861764,485.26588 C166.02704,500.051047 167.754528,511.746776 171.008359,519.442787 C182.438177,546.420199 199.227942,561.315703 214.029912,574.473398 C227.435693,586.362217 238.995664,596.623564 242.55713,612.594855 C255.951079,672.783724 287.767623,746.709558 322.660516,771.562983 C330.564366,777.190173 338.184245,780.003768 345.472825,780.003768 C351.885829,780.003768 358.038526,777.824611 363.895421,773.493881 C387.287503,756.170962 388.198575,705.360743 389.180641,651.571423 C390.008888,605.285024 390.872632,557.453906 404.692537,522.090876 C407.354762,515.305147 409.804009,515.718911 413.507459,516.380933 C425.386898,518.394584 435.503353,512.215709 448.305696,414.512237 L451.322884,391.424206 C468.503108,259.847254 477.980629,187.355802 501.112404,156.76485 C524.977771,125.20845 530.172067,82.4252522 518.517438,0.031048158 L514.186886,0.031048158 C525.675865,80.2460952 521.002182,121.429405 498.521172,151.165244"
                          id="Fill-20" fill="#F4F1ED" mask="url(#mask-6)"></path>
                </g>
                <g id="Group-25" transform="translate(211.187736, 0.022773)">
                    <mask id="mask-8" fill="white">
                        <use xlink:href="#path-7"></use>
                    </mask>
                    <g id="Clip-24"></g>
                    <path d="M121.094601,222.956056 C114.125488,231.672685 107.191872,234.238021 99.8914595,230.817572 C70.4886654,217.025439 43.4996218,106.9918 31.9869785,60.0157941 C25.0060334,31.6039996 14.7002653,12.0467547 6.66626239,0.0475987179 L0.0166163984,0.0475987179 C7.92046609,10.6123728 20.3086856,31.02473 28.0942142,62.7466365 C47.5107072,141.96865 71.1039352,224.693865 98.755577,237.686055 C101.18116,238.81701 103.59491,239.368695 105.996828,239.368695 C111.995708,239.368695 117.899931,235.810325 123.603009,228.693584 C140.724072,207.288193 154.461152,159.843255 161.311944,98.4958459 C165.32303,62.5811309 166.328759,27.0525956 164.447453,0.0475987179 L160.211558,0.0475987179 C164.849745,64.4016925 152.556183,183.676061 121.094601,222.956056"
                          id="Fill-23" fill="#F4F1ED" mask="url(#mask-8)"></path>
                </g>
                <g id="Group-28" transform="translate(127.866485, 0.022773)" fill="#F4F1ED">
                    <path d="M374.548584,162.976827 C368.502375,217.317832 358.788213,249.150076 343.962578,263.135299 C330.62779,275.713725 314.015507,273.479399 293.687942,269.259006 C287.192113,267.907377 282.624919,269.783107 279.737884,274.996534 C273.963814,285.395802 276.377564,306.966698 279.442081,334.275122 C283.973779,374.630904 290.161973,429.909774 272.295486,475.341061 C264.35614,495.560329 253.707241,505.049316 240.656423,503.58735 C204.071538,499.477294 156.896914,411.345563 139.172413,349.998154 C136.711334,341.447032 134.640715,332.813156 132.629256,324.455123 C125.36434,294.30552 117.874615,263.107715 90.6252645,231.192718 C41.6994883,173.845028 10.2852354,28.0621798 4.59399038,0.0365650113 L0.145116898,0.0365650113 C4.52299771,22.4074052 36.0437396,175.886264 88.2233461,237.040583 C114.443303,267.741872 121.388751,296.595014 128.736492,327.158382 C130.759783,335.599167 132.865898,344.34338 135.39797,353.115176 C144.769001,385.581858 161.854569,424.06191 179.993194,453.521906 C201.480306,488.416004 222.931922,508.718024 240.372453,510.676507 C241.36635,510.786844 242.336583,510.842012 243.306816,510.842012 C256.629772,510.842012 267.55081,500.249654 275.797791,479.258027 C294.622678,431.426909 288.233339,374.520567 283.583319,332.951078 C280.850102,308.649339 278.495512,287.657712 282.814232,279.851365 C284.70737,276.430915 288.091353,275.272376 293.167329,276.320578 C314.263981,280.706477 331.562527,282.995971 346.021366,269.341759 C362.018379,254.253165 372.395139,220.848618 378.701654,164.300872 C386.558175,93.5472285 388.013525,36.0616171 387.836043,0.0365650113 L383.635644,0.0365650113 C383.813126,35.6202688 382.369608,92.6369477 374.548584,162.976827"
                          id="Fill-26"></path>
                </g>
                <g id="Group-31" transform="translate(1.006993, 0.022773)" fill="#F4F1ED">
                    <path d="M616.506111,274.218657 C609.04005,287.679779 601.988112,300.42371 596.36786,313.553821 C570.349049,374.32196 577.117016,532.931493 580.761306,618.166876 C581.483065,635.158785 582.110167,649.861199 582.287648,659.819119 L582.429634,666.715185 C583.163225,703.01608 583.790326,734.351807 575.318535,745.964783 C571.08264,751.757479 564.527651,752.695344 555.274941,748.833547 C534.296609,740.06175 524.416797,788.003205 511.910256,848.74376 C502.977013,892.051059 492.860559,941.206222 476.674232,981.010318 C465.552048,1008.37391 451.400844,1021.61436 434.504591,1020.26273 C403.220491,1017.80773 369.487144,964.763185 357.158085,927.414088 C353.939751,917.621674 350.697753,901.236619 346.958806,882.286228 C337.978235,836.827357 326.808722,780.279611 306.114362,762.901523 C274.356977,736.255121 236.269414,662.522377 198.868114,555.274749 C165.406906,459.391838 141.186576,361.909041 132.833106,311.898765 C112.091417,187.741982 32.9345986,45.1864924 6.45433576,0.0586324245 L0.502784269,0.0586324245 C23.1612755,38.1249202 107.453229,186.169679 128.774692,313.857248 C137.199155,364.253703 161.596966,462.453692 195.235656,558.915872 C221.988057,635.600133 262.619524,734.324223 304.233056,769.273488 C323.365578,785.327531 334.239288,840.330559 342.959553,884.520554 C346.769493,903.82954 350.058819,920.490437 353.490131,930.862122 C365.807358,968.183634 400.002157,1024.67621 434.327109,1027.37947 C435.167189,1027.43464 436.007269,1027.48981 436.847348,1027.48981 C454.134062,1027.48981 468.699389,1013.22874 480.152872,985.037621 C496.646834,944.433581 506.869777,894.83707 515.885845,851.060839 C527.694291,793.768317 537.041659,748.53012 554.257379,755.729614 C564.894446,760.17068 572.644478,758.763883 577.957096,751.481636 C588.07355,737.661919 587.410952,704.671136 586.641865,666.494511 L586.511712,659.57086 C586.310566,649.475019 585.683464,634.717436 584.949873,617.642775 C581.352912,533.345257 574.655937,376.39078 599.787339,317.719046 C605.253774,304.94753 612.211055,292.396689 619.58246,279.073488 C651.032209,222.332652 689.616721,152.654795 649.12724,0.0586324245 L644.500884,0.0586324245 C685.049526,150.503222 647.269598,218.719113 616.506111,274.218657"
                          id="Fill-29"></path>
                </g>
                <g id="Group-34" transform="translate(595.122974, 0.022773)">
                    <mask id="mask-10" fill="white">
                        <use xlink:href="#path-9"></use>
                    </mask>
                    <g id="Clip-33"></g>
                    <path d="M142.03998,86.4746226 C145.045336,170.165287 124.208989,217.44472 100.083317,272.227073 C87.9790677,299.728587 75.4370308,328.19555 64.7644673,363.779254 C37.3258034,455.221097 36.959008,552.869401 63.4865993,700.803822 C96.2023844,883.246161 102.982184,967.350589 96.4508587,1109.87849 C95.4924577,1130.7322 92.1676347,1144.60709 86.2752438,1152.27551 C76.9988693,1164.32984 61.9957534,1159.64051 47.4895862,1155.11669 C30.3685226,1149.79293 12.6440213,1144.27607 3.39131106,1166.12281 C2.48023857,1168.2468 1.58099818,1170.31562 0.693589909,1172.35686 L5.89971845,1172.35686 C6.21918542,1171.66725 6.51498818,1170.97764 6.81079094,1170.26045 C14.5253269,1152.08242 30.1673767,1156.96484 46.720499,1162.1231 C62.1377388,1166.92276 78.0874235,1171.88793 88.8428117,1157.93029 C95.7409321,1148.9654 99.5982,1133.43546 100.651258,1110.43018 C107.229911,966.854073 100.414616,882.197959 67.521349,698.735002 C41.3368888,552.731479 41.6326916,456.627895 68.5152462,366.979029 C79.0339923,331.94701 91.4577081,303.728306 103.4673,276.47505 C128.07809,220.589326 149.340392,172.31686 146.240379,86.0332743 C144.867854,47.8290652 136.372399,18.1483944 129.497943,0.0531155712 L124.374639,0.0531155712 C131.118942,16.9346867 140.631959,47.2497956 142.03998,86.4746226"
                          id="Fill-32" fill="#F4F1ED" mask="url(#mask-10)"></path>
                </g>
                <g id="Group-37" transform="translate(671.136566, 0.022773)">
                    <mask id="mask-12" fill="white">
                        <use xlink:href="#path-11"></use>
                    </mask>
                    <g id="Clip-36"></g>
                    <path d="M107.15007,61.0722715 C118.745538,123.219624 94.8210112,176.153831 69.4647988,232.205061 C65.8323409,240.259667 62.0697299,248.590115 58.4609362,256.865395 C27.4608072,327.839713 10.0439408,393.490267 3.65460124,463.443967 C-2.40343924,529.591038 1.51298927,600.179176 15.959996,685.552481 C22.0417007,721.49478 29.3421127,759.036967 36.4058826,795.365446 C61.0048399,921.811724 86.3965487,1052.45081 74.0556576,1172.35962 L78.3270494,1172.35962 C90.5732836,1051.04401 65.0750859,919.991162 40.4051359,793.13112 C33.0337311,755.230338 26.0646182,719.398376 20.0065777,683.593998 C-8.6626256,514.143849 3.07482783,395.697009 61.8449198,261.085788 C65.4418813,252.865677 69.1926603,244.562812 72.8251181,236.535791 C97.696214,181.505179 123.431054,124.598837 111.172988,58.9206987 C106.144341,32.0536232 99.3882058,13.0756478 93.18818,0.0558739979 L87.6389202,0.0558739979 C94.0874204,12.4412097 101.707299,31.9157018 107.15007,61.0722715"
                          id="Fill-35" fill="#F4F1ED" mask="url(#mask-12)"></path>
                </g>
                <g id="Group-40" transform="translate(710.933612, 0.022773)">
                    <mask id="mask-14" fill="white">
                        <use xlink:href="#path-13"></use>
                    </mask>
                    <g id="Clip-39"></g>
                    <path d="M125.473533,105.924289 C120.054427,135.21878 105.169632,164.596024 87.9539116,198.662593 C54.2205651,265.361349 7.9925101,356.72044 1.15355034,514.364523 C-1.61516348,578.360021 18.0734681,675.26355 38.9216465,777.821853 C62.6923561,894.861895 87.2794813,1015.84649 85.4928326,1112.80519 C85.0550446,1136.4449 84.3687822,1156.05731 83.5405344,1172.35962 L87.7645978,1172.35962 C88.6520061,1155.09187 89.2791079,1135.28636 89.7050639,1113.02586 C91.5153768,1014.7707 66.7980984,893.151671 42.8972355,775.532358 C22.1910425,673.663662 2.64439624,577.422156 5.36578161,514.86104 C12.0982524,359.589204 55.9362211,272.919438 91.1604135,203.29675 C108.683769,168.650911 123.805206,138.721982 129.496451,108.048277 C137.554118,64.5203048 119.51015,24.4955341 104.365049,0.0558739979 L98.0112054,0.0558739979 C112.884168,22.7025568 133.377383,63.2238443 125.473533,105.924289"
                          id="Fill-38" fill="#F4F1ED" mask="url(#mask-14)"></path>
                </g>
                <g id="Group-43" transform="translate(749.947401, 0.022773)">
                    <mask id="mask-16" fill="white">
                        <use xlink:href="#path-15"></use>
                    </mask>
                    <g id="Clip-42"></g>
                    <path d="M148.600804,41.9205153 C164.231022,65.7809058 171.614259,94.5237115 168.881042,120.728765 C165.639043,151.678312 148.991264,178.269545 120.736185,197.661284 C91.3452227,217.770214 60.6290643,257.463974 38.5503464,303.777957 C19.3349993,344.106155 -2.791047,409.149855 0.90057142,489.999341 C5.08913847,582.158375 28.1262572,660.828703 52.5359008,744.133188 C85.4055033,856.345984 122.286191,982.323329 123.410242,1172.35134 L127.634305,1172.35134 C126.522087,980.723442 89.3929244,853.918569 56.2985119,740.960997 C32.0900142,658.318535 9.23037708,580.255061 5.08913847,489.475239 C-1.14638366,352.409019 69.8817745,240.168639 122.309855,204.253924 C159.805813,178.545387 170.584865,145.33393 173.02228,121.970057 C176.027636,93.2824195 168.147451,62.1673669 151.416847,36.6519204 C142.329786,22.7494501 133.562192,10.3916987 125.883153,0.0475987179 L119.091521,0.0475987179 C127.634305,11.3295637 137.880913,25.5630452 148.600804,41.9205153"
                          id="Fill-41" fill="#F4F1ED" mask="url(#mask-16)"></path>
                </g>
                <g id="Group-46" transform="translate(791.968134, 0.022773)">
                    <mask id="mask-18" fill="white">
                        <use xlink:href="#path-17"></use>
                    </mask>
                    <g id="Clip-45"></g>
                    <path d="M181.69859,76.2932698 C192.595963,95.3815822 217.159424,143.543712 210.01283,178.57573 C205.69411,199.677694 190.442519,213.442243 164.695847,219.538366 C134.464805,226.682691 102.75475,245.081397 75.422575,271.341618 C45.6648176,299.946503 23.4677786,335.364701 11.2097123,373.734416 C-2.64568884,417.096883 -3.32011913,461.75581 9.2219178,506.469906 C18.7704308,540.591644 33.7617146,582.905909 51.1194204,631.895566 C103.180706,778.947291 173.17947,976.671313 176.82376,1172.3541 L181.035992,1172.3541 C177.415366,974.740414 107.061638,776.050943 54.7400462,628.254443 C37.4415009,579.402707 22.4975456,537.226363 13.0200252,503.408052 C1.09325802,460.873113 1.73219197,418.365759 14.9131629,377.099696 C40.991134,295.422683 110.291804,239.564543 165.263789,226.572354 C192.737949,220.090051 209.113589,204.725615 213.988419,180.892808 C221.62013,143.543712 198.926142,96.2366945 184.72761,71.3556861 C172.28023,49.5641155 155.490465,19.8834448 144.309121,0.0503571446 L138.487723,0.0503571446 C149.503418,19.5800178 168.162656,52.5983849 181.69859,76.2932698"
                          id="Fill-44" fill="#F4F1ED" mask="url(#mask-18)"></path>
                </g>
                <g id="Group-49" transform="translate(863.744053, 0.022773)">
                    <mask id="mask-20" fill="white">
                        <use xlink:href="#path-19"></use>
                    </mask>
                    <g id="Clip-48"></g>
                    <path d="M202.93844,159.462592 C219.231256,226.795786 228.211828,313.52072 211.552216,355.448805 C204.760585,372.523466 194.088022,381.157342 179.818496,381.157342 C159.195128,381.157342 152.545482,366.896276 144.854611,350.3733 C135.649229,330.622965 125.236972,308.224541 89.8352975,306.541901 C55.2973675,304.886845 24.7705229,329.602348 10.1578667,371.006332 C-1.04714176,402.728238 -8.11091162,458.972558 21.8479917,546.800862 C35.5614075,586.908386 52.2565152,624.147145 69.9218559,663.592647 C121.332375,778.260442 179.309716,907.658237 195.271233,1172.35686 L199.495296,1172.35686 C183.498283,905.203237 125.083154,774.839993 73.2821752,659.289501 C55.6878272,620.03709 39.0637122,582.99142 25.5041138,543.242492 C-3.43722805,458.420872 3.14142529,404.74189 13.7784925,374.647455 C27.6220615,335.450212 56.7290529,312.113923 89.7288086,313.658642 C123.15452,315.258529 132.501887,335.339875 141.553452,354.759199 C149.56379,371.999365 157.148173,388.274082 179.818496,388.274082 C195.578867,388.274082 207.434642,378.564421 215.042689,359.42094 C233.77292,312.279428 222.331269,220.81 206.843036,156.759334 C189.59182,85.4540047 157.574129,28.6579999 139.18703,0.0531155712 L132.927843,0.0531155712 C150.167228,26.0374946 184.847143,84.6816452 202.93844,159.462592"
                          id="Fill-47" fill="#F4F1ED" mask="url(#mask-20)"></path>
                </g>
                <g id="Group-52" transform="translate(944.778575, 0.022773)">
                    <mask id="mask-22" fill="white">
                        <use xlink:href="#path-21"></use>
                    </mask>
                    <g id="Clip-51"></g>
                    <path d="M168.308271,107.943457 C182.648789,178.36609 193.960286,282.33119 166.415133,377.634831 C140.289834,468.000888 101.634329,453.877744 64.268525,440.223532 C47.4550963,434.07224 31.5882363,428.279544 17.5080251,432.334431 C9.45035795,434.65151 3.87743399,442.292352 1.80681469,453.794991 C-3.5767955,483.585999 11.390824,553.539698 113.288958,717.555747 C216.453128,883.613032 217.660003,1083.95756 211.992422,1172.36513 L216.228318,1172.36513 C219.26917,1124.45126 218.381762,1072.17908 213.554261,1022.22397 C201.946961,901.928984 169.183847,797.688041 116.199657,712.397489 C10.5625763,542.395655 1.71215781,478.703583 5.8297322,455.863811 C7.86485517,444.581846 13.6980856,440.66488 18.2179517,439.368419 C31.4935795,435.506622 46.9818119,441.188981 63.3811168,447.174767 C100.522111,460.746226 142.62076,476.138247 170.189577,380.751853 C198.385495,283.269055 186.884684,177.317887 172.295692,105.626379 C163.196799,60.9950356 151.802477,23.7286915 143.74481,0.0338065847 L138.881813,0.0338065847 C146.868487,23.1218377 158.842583,61.4363838 168.308271,107.943457"
                          id="Fill-50" fill="#F4F1ED" mask="url(#mask-22)"></path>
                </g>
                <g id="Group-55" transform="translate(1084.253434, 0.022773)">
                    <mask id="mask-24" fill="white">
                        <use xlink:href="#path-23"></use>
                    </mask>
                    <g id="Clip-54"></g>
                    <path d="M82.7476063,157.200682 C95.3961322,251.318199 98.2476708,384.743296 39.8562064,485.867217 C-26.6520857,601.059114 3.47246716,657.165512 41.6191908,728.194999 C45.4882909,735.366908 49.4757121,742.81466 53.4513011,750.483086 C110.174438,859.634029 130.880631,969.088398 138.263868,1041.6626 C145.386798,1111.72664 141.825333,1161.81967 140.914261,1172.35686 L145.161988,1172.35686 C146.226878,1159.39225 149.409716,1109.46473 142.452435,1040.80749 C134.998205,967.240252 114.05537,856.323917 56.6223067,745.766176 C52.6230534,738.09775 48.611968,730.622414 44.7428679,723.395336 C6.64347272,652.503771 -20.8780159,601.252204 42.8733945,490.832385 C69.2471684,445.15284 85.7292981,389.322285 91.8464991,324.857854 C96.7213285,273.440781 95.0411689,216.506855 86.8533485,155.628379 C77.9319374,89.2882177 63.0708068,32.492213 53.4749653,0.0531155712 L48.7776175,0.0531155712 C58.1841452,31.4440109 73.601385,89.2330492 82.7476063,157.200682"
                          id="Fill-53" fill="#F4F1ED" mask="url(#mask-24)"></path>
                </g>
                <g id="Group-58" transform="translate(1160.553804, 0.022773)">
                    <mask id="mask-26" fill="white">
                        <use xlink:href="#path-25"></use>
                    </mask>
                    <g id="Clip-57"></g>
                    <path d="M277.719663,768.081848 C270.052456,788.052857 259.450885,813.457966 247.772592,841.483581 C214.985814,920.098741 174.188698,1017.96772 165.894389,1071.95013 C159.777188,1111.69906 146.253086,1129.76675 136.065639,1127.09108 C125.748038,1124.38782 114.424709,1098.8172 116.459832,1035.73199 C120.364428,915.161157 90.2990359,845.345379 52.235137,756.992973 C45.2541919,740.74584 38.0129404,723.974606 30.6060393,706.017248 C-15.338045,594.604396 8.29067928,518.251146 29.1151934,450.862783 C35.2323945,431.112448 41.0064643,412.4379 44.5679295,394.121947 C61.1683803,308.527968 56.8733242,199.735621 50.3419993,123.575461 C45.798469,70.586085 39.5747789,25.5961464 35.6820147,0.0531155712 L31.3277981,0.0531155712 C40.9473037,63.0831646 66.6348152,257.552243 40.5568441,391.915206 C37.1137,409.679473 31.4224549,428.078179 25.3880787,447.580255 C5.06051316,513.313563 -20.2483708,595.128497 27.1510631,710.072136 C34.5934605,728.112246 41.8228799,744.911064 48.8274892,761.185781 C87.8734532,851.827681 116.081204,917.31273 112.271265,1035.34581 C110.070492,1103.12035 122.778179,1130.78737 135.414872,1134.12506 C136.373273,1134.37332 137.331674,1134.51124 138.278243,1134.51124 C151.577535,1134.51124 164.320718,1110.43018 169.976467,1073.74311 C178.06963,1021.00199 218.630104,923.739864 251.215736,845.566053 C261.213869,821.567741 270.431083,799.472743 277.719663,780.991285 L277.719663,768.081848 Z"
                          id="Fill-56" fill="#F4F1ED" mask="url(#mask-26)"></path>
                </g>
                <g id="Group-61" transform="translate(1216.420633, 0.022773)">
                    <mask id="mask-28" fill="white">
                        <use xlink:href="#path-27"></use>
                    </mask>
                    <g id="Clip-60"></g>
                    <path d="M221.852834,525.828544 C214.232954,592.19629 198.105788,680.493527 164.218624,731.662341 C157.852949,741.261666 150.647194,740.820317 143.050979,740.323801 C133.253991,739.716947 122.14364,739.02734 112.642455,761.232675 C110.169544,767.025371 107.945108,772.597392 105.791663,778.031493 C98.7042294,795.878513 93.0958091,810.001658 85.6060833,812.429073 C80.9797281,813.946208 75.4777968,810.939523 68.7926545,803.215928 C57.8124561,790.527166 34.633352,749.592114 19.2279444,693.761559 C6.41376894,647.28207 -4.57826154,576.804269 15.9504499,505.11276 C32.1841052,448.371924 37.1417594,341.648397 30.6814272,187.92128 C27.3684363,108.809603 21.7008555,37.0353417 18.5061857,0.0448402913 L14.2347939,0.0448402913 C21.9020013,88.921347 44.5368284,388.845077 12.1523424,501.995738 C-9.08629557,576.197415 2.21336978,648.881957 15.4180049,696.768244 C31.1665437,753.89526 55.0555744,795.961266 66.4262324,809.091377 C72.7209151,816.346039 78.2465107,819.931994 83.2278291,819.931994 C84.3163832,819.931994 85.3694411,819.766488 86.4106668,819.435477 C95.6160486,816.428792 101.662257,801.229861 109.293968,781.976043 C111.423748,776.624695 113.62452,771.080258 116.050103,765.425483 C124.237923,746.254418 133.313152,746.833688 142.885329,747.440541 C151.013989,747.964643 159.402955,748.488744 167.022834,736.95852 C197.44319,691.058301 213.558524,616.553197 221.852834,559.729608 L221.852834,525.828544 Z"
                          id="Fill-59" fill="#F4F1ED" mask="url(#mask-28)"></path>
                </g>
                <g id="Group-64" transform="translate(1271.056734, 0.022773)">
                    <mask id="mask-30" fill="white">
                        <use xlink:href="#path-29"></use>
                    </mask>
                    <g id="Clip-63"></g>
                    <path d="M167.216733,242.645706 C155.136148,367.299006 132.832621,453.748097 114.71766,523.839719 L112.481391,532.528763 C94.5557437,602.041114 52.9422117,680.545937 31.7035737,669.650151 C22.9596442,665.1815 10.1927972,639.693638 23.0188047,519.371067 C41.0982693,349.838166 13.718766,82.5742073 4.32407044,0.0420818646 L0.0408465026,0.0420818646 C9.23439622,80.5605558 36.9333665,348.762379 18.8893982,518.129775 C8.66645492,614.012686 12.5710513,667.305489 30.4848663,676.463465 C32.2596829,677.373746 34.0818279,677.78751 35.9394692,677.78751 C50.3154832,677.78751 66.8686055,652.96167 76.0739874,636.852459 C92.1656574,608.688922 107.227934,570.760556 116.338659,535.369942 L118.58676,526.680898 C134.879576,463.623265 154.556375,387.407936 167.216733,282.256713 L167.216733,242.645706 Z"
                          id="Fill-62" fill="#F4F1ED" mask="url(#mask-30)"></path>
                </g>
                <g id="Group-67" transform="translate(1327.706820, 0.022773)">
                    <mask id="mask-32" fill="white">
                        <use xlink:href="#path-31"></use>
                    </mask>
                    <g id="Clip-66"></g>
                    <path d="M76.7339105,0.0448402913 C74.0716856,24.650006 72.2140443,61.4474175 75.0300866,111.485277 C77.325516,151.951396 75.3140572,209.51976 69.9067828,258.150822 C63.6949249,313.981377 53.9216018,350.00643 43.107053,357.012833 C36.0787794,361.564237 28.1749297,353.895811 19.5611534,334.255813 C-3.79543232,280.880258 5.61109537,76.8394383 10.1072973,0.0448402913 L5.83590547,0.0448402913 C1.17405401,78.2186516 -8.27980213,282.590482 16.1771699,338.476206 C24.0336911,356.405979 31.6890665,365.453619 39.0249749,365.453619 C40.9181125,365.453619 42.7757539,364.846765 44.609731,363.660641 C72.3323654,345.703284 83.6438629,188.886729 79.2304857,110.79567 C76.4144435,60.868148 78.4259022,24.1810735 81.0999592,0.0448402913 L76.7339105,0.0448402913 Z"
                          id="Fill-65" fill="#F4F1ED" mask="url(#mask-32)"></path>
                </g>
                <path d="M1438.27347,941.918601 C1402.94279,1019.54073 1377.81138,1095.64572 1361.64872,1151.72453 C1359.6136,1158.81369 1357.67313,1165.68217 1355.83915,1172.38515 L1360.48917,1172.38515 C1362.07468,1166.6752 1363.70751,1160.82734 1365.435,1154.84155 C1380.99422,1100.85914 1404.90692,1028.22977 1438.27347,953.641914 L1438.27347,941.918601 Z"
                      id="Fill-68" fill="#F4F1ED"></path>
            </g>
        </g>
    </g>
</svg>