<?xml version="1.0" encoding="UTF-8"?>
<svg width="30px" height="26px" viewBox="0 0 30 26" version="1.1" xmlns="http://www.w3.org/2000/svg"
     xmlns:xlink="http://www.w3.org/1999/xlink">
    <!-- Generator: sketchtool 41.2 (35397) - http://www.bohemiancoding.com/sketch -->
    <title>1DD0467E-EE72-472A-8288-2837D78201BE</title>
    <desc>Created with sketchtool.</desc>
    <defs></defs>
    <g id="Main" stroke="none" stroke-width="1" fill="none" fill-rule="evenodd">
        <g id="Homepage#3" transform="translate(-1275.000000, -80.000000)" fill="#434343">
            <g id="Group-6" transform="translate(1275.000000, 72.000000)">
                <path d="M23,30 C21.896,30 21,30.895 21,32 C21,33.104 21.896,33.999 23,33.999 C24.104,33.999 25,33.104 25,32 C25,30.895 24.104,30 23,30 L23,30 Z M29,12 L9,12 L9.625,14 L27.292,14 L23.754,25.999 L11.333,25.999 L5.531,8 L0,8 L0,10 L4.277,10 L10,28 L25.031,28 L25.035,27.989 L25.154,28.021 L30,12 L29,12 Z M12,30 C10.896,30 10,30.895 10,32 C10,33.104 10.896,33.999 12,33.999 C13.104,33.999 14,33.104 14,32 C14,30.895 13.104,30 12,30 L12,30 Z"
                      id="Fill-1"></path>
            </g>
        </g>
    </g>
</svg>