<?xml version="1.0" encoding="UTF-8"?>
<svg width="137px" height="45px" viewBox="0 0 137 45" version="1.1" xmlns="http://www.w3.org/2000/svg"
     xmlns:xlink="http://www.w3.org/1999/xlink">
    <!-- Generator: sketchtool 41.2 (35397) - http://www.bohemiancoding.com/sketch -->
    <title>E01598E8-9D2A-4A1B-90CF-59FFE0AF1BD2</title>
    <desc>Created with sketchtool.</desc>
    <defs>
        <polygon id="path-1"
                 points="23.2698237 28.2430925 23.2698237 0.150606936 0.0451848754 0.150606936 0.0451848754 28.2430925"></polygon>
    </defs>
    <g id="Main" stroke="none" stroke-width="1" fill="none" fill-rule="evenodd">
        <g id="Homepage#3" transform="translate(-20.000000, -67.000000)">
            <g id="Page-1" transform="translate(20.000000, 67.000000)">
                <g id="Group-40" transform="translate(47.739589, 3.556561)">
                    <path d="M20.8843926,10.7238902 C22.3312892,9.6610578 23.2724043,7.94195376 23.2731784,6.00019075 C23.2747267,2.77059538 20.6761448,0.151491329 17.4695928,0.150450867 C17.4332075,0.150450867 17.3973383,0.152791908 17.361211,0.153312139 L0.0508362105,0.146028902 L0.0498040031,2.47250289 L0.050062055,2.47250289 L0.0392238781,28.2247283 L0.03948193,28.2247283 L4.68441487,28.2268092 L7.00688133,28.2278497 L7.0156551,7.15848555 L18.6279874,7.16342775 L18.6290196,4.82238728 L7.0166873,4.81744509 L4.69422084,4.81640462 L4.69318863,7.15744509 L4.68518902,25.8857688 L2.36272255,25.8847283 L2.37252852,2.47354335 L12.8308531,2.47796532 C12.8285306,2.48134682 12.8259501,2.48394798 12.8236276,2.48706936 L17.4685606,2.48915029 C19.392595,2.49019075 20.9517442,4.06154913 20.950712,5.99915029 C20.9499378,7.92322543 19.4106586,9.48339884 17.5046878,9.50420809 L16.3047468,9.50368786 L16.3044888,9.50368786 L16.3039727,9.50368786 L9.33708936,9.50056647 L9.33605715,11.8416069 L16.3039727,11.8447283 C20.1517835,11.846289 23.2695657,14.9918671 23.2680174,18.8704509 C23.266211,22.7492948 20.1455902,25.8922717 16.2975214,25.8909711 L16.0394695,25.890711 L15.563622,25.8904509 L11.6525884,25.8888902 L11.6567173,16.5247283 L12.283009,16.5249884 L16.3016502,16.5268092 C17.5841678,16.5273295 18.6236006,17.5758555 18.6230845,18.8686301 C18.6225683,20.1614046 17.5823614,21.2094104 16.2995858,21.2088902 L16.2985536,23.5499306 C18.8638468,23.5509711 20.9442607,21.4554798 20.9455509,18.8694104 C20.9465831,16.2838613 18.8679756,14.1868092 16.3026824,14.1857688 C16.2157189,14.1855087 16.1300457,14.1894104 16.0446306,14.1943526 L16.0446306,14.1855087 L9.33528299,14.1826474 L9.33425079,16.5236879 L9.33012196,25.8878497 L9.3293478,28.2288902 L11.6518143,28.2299306 L16.0386954,28.2317514 L16.0386954,28.2255087 C16.1246266,28.2281098 16.2100418,28.2317514 16.2967472,28.2320116 C21.4273337,28.2338324 25.5884194,24.0433699 25.5904839,18.8714913 C25.5920322,15.3791792 23.6953512,12.3347861 20.8843926,10.7238902"
                          id="Fill-1" fill="#5A5B5D"></path>
                    <polygon id="Fill-3" fill="#5A5B5D"
                             points="13.9780999 18.8667312 13.9760355 23.5488121 16.298502 23.5498526 16.3005664 18.8677717"></polygon>
                    <polygon id="Fill-5" fill="#5A5B5D"
                             points="62.7578179 0.145274566 60.4353515 0.144234104 60.4353515 0.150736994 58.2130091 0.150736994 58.1069498 0.150736994 57.3327943 0.150736994 55.7844833 0.150736994 55.5313345 0.150736994 53.7484544 3.26328035 53.746648 3.26197977 49.9305776 9.92458092 44.3324012 0.150736994 44.172151 0.150736994 42.8808596 0.150736994 41.6158896 0.150736994 39.2691662 0.150736994 39.0353713 0.150736994 36.9466998 0.150736994 36.3536966 0.150736994 36.9466998 1.18573699 37.694534 2.49177746 45.9410963 16.8896965 47.2754823 19.241922 48.5827729 16.9596676 48.1925985 16.2779046 48.1874375 16.2779046 41.0734646 3.85738439 41.0734646 3.84854046 40.2962125 2.49177746 40.3764666 2.49177746 42.9569849 2.49177746 42.9915639 2.49177746 48.5910305 12.2677023 49.9238682 14.5949566 49.9238682 14.6186272 49.9305776 14.6066618 49.9318678 14.6087428 51.2727051 12.2677023 56.8719137 2.49177746 60.4343192 2.49177746 60.4242552 25.9021821 58.1069498 25.9021821 58.1069498 9.57940751 58.1069498 9.57446532 58.1069498 8.43984104 58.1069498 4.89238439 55.7844833 8.94706647 49.7961326 19.4018931 49.7974228 19.4044942 47.2628378 23.8301012 34.8871881 2.22333815 33.6978272 0.14683526 31.0153784 0.145534682 30.2432874 0.145274566 28.2015813 0.14449422 28.1788727 0.14449422 27.9208209 0.144234104 27.9089505 28.2367197 30.231417 28.2377601 34.8763499 28.239841 34.8771241 25.8988006 34.881769 15.8227023 41.9954838 28.2432225 44.6774165 28.2432225 34.8833173 11.1440029 32.5626572 7.09218208 32.5605928 11.7708815 32.5546576 25.8977601 30.2321911 25.8967197 30.2422552 2.48631503 32.3564738 2.48735549 47.0357521 28.1157659 47.0393649 28.1100434 47.0357521 28.1157659 47.1087808 28.2432225 47.1157482 28.2432225 47.4168947 28.2432225 48.6036751 26.1708815 55.7844833 13.6340896 55.7844833 25.9021821 55.7844833 28.2432225 58.1069498 28.2432225 62.7518827 28.2432225 62.7518827 25.9021821 62.7467217 25.9021821"></polygon>
                    <g id="Group-9" transform="translate(65.029061, 0.000000)">
                        <mask id="mask-2" fill="white">
                            <use xlink:href="#path-1"></use>
                        </mask>
                        <g id="Clip-8"></g>
                        <path d="M20.9473831,0.150606936 L13.9799837,0.150606936 C6.28410396,0.150606936 0.0451848754,6.43942197 0.0451848754,14.1968497 C0.0451848754,21.9542775 6.28410396,28.2430925 13.9799837,28.2430925 L23.2698496,28.2430925 L23.2698496,25.902052 L13.9799837,25.902052 C7.56662156,25.902052 2.36765134,20.6615029 2.36765134,14.1968497 C2.36765134,7.73219653 7.56662156,2.4916474 13.9799837,2.4916474 L20.9473831,2.4916474 L20.9473831,4.83268786 L13.9799837,4.83268786 C8.84913915,4.83268786 4.69011781,9.02523121 4.69011781,14.1968497 C4.69011781,19.3687283 8.84913915,23.5610116 13.9799837,23.5610116 L20.9473831,23.5610116 L23.2698496,23.5610116 L23.2698496,21.2199711 L23.2698496,18.8789306 L23.2698496,16.5378902 L20.9473831,16.5378902 L13.9799837,16.5378902 C12.697208,16.5378902 11.6575172,15.4898844 11.6575172,14.1968497 C11.6575172,12.903815 12.697208,11.8558092 13.9799837,11.8558092 L23.2698496,11.8558092 L23.2698496,9.51476879 L13.9799837,9.51476879 C11.4146904,9.51476879 9.33505075,11.6110405 9.33505075,14.1968497 C9.33505075,16.782659 11.4146904,18.8789306 13.9799837,18.8789306 L20.9473831,18.8789306 L20.9473831,21.2199711 L13.9799837,21.2199711 C10.1319148,21.2199711 7.01258428,18.0756936 7.01258428,14.1968497 C7.01258428,10.3182659 10.1319148,7.17372832 13.9799837,7.17372832 L20.9473831,7.17372832 L23.2698496,7.17372832 L23.2698496,4.83268786 L23.2698496,2.4916474 L23.2698496,0.150606936 L20.9473831,0.150606936 Z"
                              id="Fill-7" fill="#5A5B5D" mask="url(#mask-2)"></path>
                    </g>
                    <path d="M2.39172758,33.725341 C2.93879746,33.725341 3.33439091,33.9162659 3.70288893,34.2333468 C3.74624163,34.2770462 3.75191877,34.3425954 3.70856607,34.3862948 C3.65953622,34.4351965 3.6001843,34.4898208 3.55683159,34.5392428 C3.50780174,34.5936069 3.47528721,34.5881445 3.41567724,34.5335202 C3.13930373,34.287711 2.74938742,34.107711 2.38630849,34.107711 C1.53009252,34.107711 0.88005996,34.8284913 0.88005996,35.6751676 C0.88005996,36.5161214 1.53009252,37.253289 2.38630849,37.253289 C2.98215017,37.253289 3.36174441,37.0241272 3.36174441,37.0241272 L3.36174441,36.2593873 L2.73854924,36.2593873 C2.67868121,36.2593873 2.63532851,36.2156879 2.63532851,36.1610636 L2.63532851,35.9592139 C2.63532851,35.8988671 2.67868121,35.8551676 2.73854924,35.8551676 L3.67579348,35.8551676 C3.73024242,35.8551676 3.77333708,35.9043295 3.77333708,35.9592139 L3.77333708,37.2098497 C3.77333708,37.2369017 3.75191877,37.2806012 3.73024242,37.2969884 C3.73024242,37.2969884 3.17723735,37.6575087 2.39172758,37.6575087 C1.30816795,37.6575087 0.435952761,36.7892428 0.435952761,35.6970173 C0.435952761,34.6047919 1.30816795,33.725341 2.39172758,33.725341"
                          id="Fill-10" fill="#5A5B5D"></path>
                    <path d="M9.07359263,36.3031127 C8.8080573,35.7077081 8.54794106,35.1071012 8.28240572,34.5116965 L8.23905302,34.5116965 L7.44812416,36.3031127 L9.07359263,36.3031127 Z M6.49978368,37.4608873 L8.14692851,33.7851936 C8.16344383,33.7526792 8.19028122,33.7253671 8.23905302,33.7253671 L8.29350195,33.7253671 C8.3420157,33.7253671 8.36911114,33.7526792 8.3853684,33.7851936 L10.0216751,37.4608873 C10.0541896,37.532159 10.0108369,37.6029104 9.9292925,37.6029104 L9.71278702,37.6029104 C9.66401522,37.6029104 9.63150069,37.5701358 9.62066251,37.5428237 L9.21964997,36.6417832 L7.29638968,36.6417832 L6.90079623,37.5428237 C6.88995805,37.5701358 6.85744352,37.6029104 6.80867172,37.6029104 L6.59190819,37.6029104 C6.51062186,37.6029104 6.46726915,37.532159 6.49978368,37.4608873 L6.49978368,37.4608873 Z"
                          id="Fill-12" fill="#5A5B5D"></path>
                    <path d="M14.4327098,35.7460491 C14.8499796,35.7460491 15.2128005,35.3964538 15.2128005,34.9487948 C15.2128005,34.5336503 14.8499796,34.1785925 14.4327098,34.1785925 L13.3819228,34.1785925 L13.3819228,35.7460491 L14.4327098,35.7460491 Z M12.9538148,33.8838815 C12.9538148,33.8289971 12.9971675,33.7798353 13.0567775,33.7798353 L14.4598053,33.7798353 C15.1100959,33.7798353 15.6411665,34.2933035 15.6411665,34.9430723 C15.6411665,35.4456156 15.3106021,35.8662225 14.8391414,36.0571474 L15.5812985,37.444604 C15.6194902,37.5156156 15.5812985,37.6030145 15.4894321,37.6030145 L15.2128005,37.6030145 C15.1642868,37.6030145 15.1371913,37.5757023 15.1263531,37.5538526 L14.4058724,36.1065694 L13.3708265,36.1065694 L13.3708265,37.4989682 C13.3708265,37.5538526 13.3220547,37.6030145 13.2678639,37.6030145 L13.0567775,37.6030145 C12.9971675,37.6030145 12.9538148,37.5538526 12.9538148,37.4989682 L12.9538148,33.8838815 Z"
                          id="Fill-14" fill="#5A5B5D"></path>
                    <path d="M20.1012827,37.226211 C20.9897552,37.226211 21.6343687,36.5871069 21.6343687,35.6858064 C21.6343687,34.7902283 20.9897552,34.1513844 20.1012827,34.1513844 L19.2886775,34.1513844 L19.2886775,37.226211 L20.1012827,37.226211 Z M18.8768268,33.8837254 C18.8768268,33.828841 18.9201795,33.7799393 18.9743704,33.7799393 L20.1879882,33.7799393 C21.2338722,33.7799393 22.0895721,34.6372803 22.0895721,35.6858064 C22.0895721,36.7455173 21.2338722,37.6028584 20.1879882,37.6028584 L18.9743704,37.6028584 C18.9201795,37.6028584 18.8768268,37.5539566 18.8768268,37.4990723 L18.8768268,33.8837254 Z"
                          id="Fill-16" fill="#5A5B5D"></path>
                    <path d="M25.2658547,33.8838295 C25.2658547,33.8289451 25.3092074,33.7800434 25.3685593,33.7800434 L27.5034221,33.7800434 C27.563032,33.7800434 27.6063847,33.8289451 27.6063847,33.8838295 L27.6063847,34.0419798 C27.6063847,34.096604 27.563032,34.146026 27.5034221,34.146026 L25.6831245,34.146026 L25.6831245,35.4785983 L27.2378867,35.4785983 C27.2920776,35.4785983 27.3408494,35.5275 27.3408494,35.5821243 L27.3408494,35.7407948 C27.3408494,35.8006214 27.2920776,35.8443208 27.2378867,35.8443208 L25.6831245,35.8443208 L25.6831245,37.2369798 L27.5034221,37.2369798 C27.563032,37.2369798 27.6063847,37.2861416 27.6063847,37.3407659 L27.6063847,37.4989162 C27.6063847,37.5538006 27.563032,37.6029624 27.5034221,37.6029624 L25.3685593,37.6029624 C25.3092074,37.6029624 25.2658547,37.5538006 25.2658547,37.4989162 L25.2658547,33.8838295 Z"
                          id="Fill-18" fill="#5A5B5D"></path>
                    <path d="M30.8148464,33.8236387 C30.8148464,33.7690145 30.8636182,33.725315 30.917551,33.725315 L31.0532863,33.725315 L33.496779,36.7946792 L33.5078753,36.7946792 L33.5078753,33.8837254 C33.5078753,33.8291012 33.551228,33.7799393 33.6105799,33.7799393 L33.7999899,33.7799393 C33.8544389,33.7799393 33.9032107,33.8291012 33.9032107,33.8837254 L33.9032107,37.559159 C33.9032107,37.6137832 33.8544389,37.6574827 33.7999899,37.6574827 L33.7027044,37.6574827 L31.2158589,34.5280318 L31.2104398,34.5280318 L31.2104398,37.4990723 C31.2104398,37.5539566 31.1670871,37.6028584 31.1074771,37.6028584 L30.917551,37.6028584 C30.8636182,37.6028584 30.8148464,37.5539566 30.8148464,37.4990723 L30.8148464,33.8236387 Z"
                          id="Fill-20" fill="#5A5B5D"></path>
                    <path d="M40.8942476,33.8838295 C40.8942476,33.8289451 40.9376003,33.7800434 40.9972103,33.7800434 L43.131815,33.7800434 C43.191425,33.7800434 43.2347777,33.8289451 43.2347777,33.8838295 L43.2347777,34.0419798 C43.2347777,34.096604 43.191425,34.146026 43.131815,34.146026 L41.3112594,34.146026 L41.3112594,35.642211 L42.8665378,35.642211 C42.9207286,35.642211 42.9695004,35.6913728 42.9695004,35.7459971 L42.9695004,35.9044075 C42.9695004,35.9592919 42.9207286,36.0081936 42.8665378,36.0081936 L41.3112594,36.0081936 L41.3112594,37.4989162 C41.3112594,37.5538006 41.2627456,37.6029624 41.2085547,37.6029624 L40.9972103,37.6029624 C40.9376003,37.6029624 40.8942476,37.5538006 40.8942476,37.4989162 L40.8942476,33.8838295 Z"
                          id="Fill-22" fill="#5A5B5D"></path>
                    <path d="M46.2697253,33.8838295 C46.2697253,33.8289451 46.3184971,33.7800434 46.372688,33.7800434 L46.5786133,33.7800434 C46.6382233,33.7800434 46.681576,33.8289451 46.681576,33.8838295 L46.681576,36.1611416 C46.681576,36.7835983 47.0663313,37.2700145 47.7001066,37.2700145 C48.339559,37.2700145 48.7297334,36.7945231 48.7297334,36.1720665 L48.7297334,33.8838295 C48.7297334,33.8289451 48.7730861,33.7800434 48.8326961,33.7800434 L49.0383634,33.7800434 C49.0925543,33.7800434 49.1415841,33.8289451 49.1415841,33.8838295 L49.1415841,36.1939162 C49.1415841,37.0239451 48.5563225,37.6575867 47.7001066,37.6575867 C46.8495677,37.6575867 46.2697253,37.0239451 46.2697253,36.1939162 L46.2697253,33.8838295 Z"
                          id="Fill-24" fill="#5A5B5D"></path>
                    <path d="M54.0188411,35.7460491 C54.4361109,35.7460491 54.7989318,35.3964538 54.7989318,34.9487948 C54.7989318,34.5336503 54.4361109,34.1785925 54.0188411,34.1785925 L52.968054,34.1785925 L52.968054,35.7460491 L54.0188411,35.7460491 Z M52.5399461,33.8838815 C52.5399461,33.8289971 52.5832988,33.7798353 52.6429087,33.7798353 L54.0459365,33.7798353 C54.6962272,33.7798353 55.2272978,34.2933035 55.2272978,34.9430723 C55.2272978,35.4456156 54.8967334,35.8662225 54.4252727,36.0571474 L55.1674298,37.444604 C55.2056215,37.5156156 55.1674298,37.6030145 55.0755633,37.6030145 L54.7989318,37.6030145 C54.750418,37.6030145 54.7233226,37.5757023 54.7124844,37.5538526 L53.9920037,36.1065694 L52.9569578,36.1065694 L52.9569578,37.4989682 C52.9569578,37.5538526 52.908186,37.6030145 52.8539951,37.6030145 L52.6429087,37.6030145 C52.5832988,37.6030145 52.5399461,37.5538526 52.5399461,37.4989682 L52.5399461,33.8838815 Z"
                          id="Fill-26" fill="#5A5B5D"></path>
                    <path d="M58.4626742,33.8236387 C58.4626742,33.7690145 58.511446,33.725315 58.5653789,33.725315 L58.7011141,33.725315 L61.1446069,36.7946792 L61.1557031,36.7946792 L61.1557031,33.8837254 C61.1557031,33.8291012 61.1990558,33.7799393 61.2584078,33.7799393 L61.4478178,33.7799393 C61.5022667,33.7799393 61.5510385,33.8291012 61.5510385,33.8837254 L61.5510385,37.559159 C61.5510385,37.6137832 61.5022667,37.6574827 61.4478178,37.6574827 L61.3505323,37.6574827 L58.8636868,34.5280318 L58.8582677,34.5280318 L58.8582677,37.4990723 C58.8582677,37.5539566 58.814915,37.6028584 58.755305,37.6028584 L58.5653789,37.6028584 C58.511446,37.6028584 58.4626742,37.5539566 58.4626742,37.4990723 L58.4626742,33.8236387 Z"
                          id="Fill-28" fill="#5A5B5D"></path>
                    <path d="M64.9981465,33.8838295 C64.9981465,33.8289451 65.0469183,33.7800434 65.1008511,33.7800434 L65.3176147,33.7800434 C65.3720636,33.7800434 65.4208354,33.8289451 65.4208354,33.8838295 L65.4208354,37.4989162 C65.4208354,37.5538006 65.3720636,37.6029624 65.3176147,37.6029624 L65.1008511,37.6029624 C65.0469183,37.6029624 64.9981465,37.5538006 64.9981465,37.4989162 L64.9981465,33.8838295 Z"
                          id="Fill-30" fill="#5A5B5D"></path>
                    <path d="M69.4036847,34.145974 L68.4612795,34.145974 C68.4014114,34.145974 68.3580587,34.0968121 68.3580587,34.0421879 L68.3580587,33.8837775 C68.3580587,33.8288931 68.4014114,33.7799913 68.4612795,33.7799913 L70.7584569,33.7799913 C70.8178088,33.7799913 70.8611615,33.8288931 70.8611615,33.8837775 L70.8611615,34.0421879 C70.8611615,34.0968121 70.8178088,34.145974 70.7584569,34.145974 L69.8155355,34.145974 L69.8155355,37.4991243 C69.8155355,37.5540087 69.7667637,37.6029104 69.7125728,37.6029104 L69.5066474,37.6029104 C69.4524565,37.6029104 69.4036847,37.5540087 69.4036847,37.4991243 L69.4036847,34.145974 Z"
                          id="Fill-32" fill="#5A5B5D"></path>
                    <path d="M73.7497421,33.8838295 C73.7497421,33.8289451 73.7985138,33.7800434 73.8527047,33.7800434 L74.0586301,33.7800434 C74.1182401,33.7800434 74.1615928,33.8289451 74.1615928,33.8838295 L74.1615928,36.1611416 C74.1615928,36.7835983 74.5463481,37.2700145 75.1801233,37.2700145 C75.8195758,37.2700145 76.2097501,36.7945231 76.2097501,36.1720665 L76.2097501,33.8838295 C76.2097501,33.8289451 76.2531029,33.7800434 76.3127128,33.7800434 L76.5183801,33.7800434 C76.572571,33.7800434 76.6216009,33.8289451 76.6216009,33.8838295 L76.6216009,36.1939162 C76.6216009,37.0239451 76.0363393,37.6575867 75.1801233,37.6575867 C74.3295845,37.6575867 73.7497421,37.0239451 73.7497421,36.1939162 L73.7497421,33.8838295 Z"
                          id="Fill-34" fill="#5A5B5D"></path>
                    <path d="M81.4988321,35.7460491 C81.9161019,35.7460491 82.2789227,35.3964538 82.2789227,34.9487948 C82.2789227,34.5336503 81.9161019,34.1785925 81.4988321,34.1785925 L80.448045,34.1785925 L80.448045,35.7460491 L81.4988321,35.7460491 Z M80.019937,33.8838815 C80.019937,33.8289971 80.0632897,33.7798353 80.1228997,33.7798353 L81.5259275,33.7798353 C82.1762181,33.7798353 82.7072888,34.2933035 82.7072888,34.9430723 C82.7072888,35.4456156 82.3767244,35.8662225 81.9052637,36.0571474 L82.6474208,37.444604 C82.6856124,37.5156156 82.6474208,37.6030145 82.5555543,37.6030145 L82.2789227,37.6030145 C82.230409,37.6030145 82.2033136,37.5757023 82.1924754,37.5538526 L81.4719947,36.1065694 L80.4369488,36.1065694 L80.4369488,37.4989682 C80.4369488,37.5538526 80.388177,37.6030145 80.3339861,37.6030145 L80.1228997,37.6030145 C80.0632897,37.6030145 80.019937,37.5538526 80.019937,37.4989682 L80.019937,33.8838815 Z"
                          id="Fill-36" fill="#5A5B5D"></path>
                    <path d="M85.942691,33.8838295 C85.942691,33.8289451 85.9860437,33.7800434 86.0453956,33.7800434 L88.1805165,33.7800434 C88.2398684,33.7800434 88.2832211,33.8289451 88.2832211,33.8838295 L88.2832211,34.0419798 C88.2832211,34.096604 88.2398684,34.146026 88.1805165,34.146026 L86.3599608,34.146026 L86.3599608,35.4785983 L87.9149811,35.4785983 C87.969172,35.4785983 88.0176858,35.5275 88.0176858,35.5821243 L88.0176858,35.7407948 C88.0176858,35.8006214 87.969172,35.8443208 87.9149811,35.8443208 L86.3599608,35.8443208 L86.3599608,37.2369798 L88.1805165,37.2369798 C88.2398684,37.2369798 88.2832211,37.2861416 88.2832211,37.3407659 L88.2832211,37.4989162 C88.2832211,37.5538006 88.2398684,37.6029624 88.1805165,37.6029624 L86.0453956,37.6029624 C85.9860437,37.6029624 85.942691,37.5538006 85.942691,37.4989162 L85.942691,33.8838295 Z"
                          id="Fill-38" fill="#5A5B5D"></path>
                </g>
                <polygon id="Fill-41" fill="#F8A824"
                         points="0 34.1740145 3.69065727 36.3220491 3.69143142 19.1382919 7.38208869 21.2863266 7.38208869 38.4703439 11.0724879 40.6181185 11.072746 23.4343613 14.7639193 25.5826561 14.7631452 42.7661532 18.4545766 44.914448 18.4548347 23.4346214 0.00025805183 12.6941879"></polygon>
                <polygon id="Fill-42" fill="#F8A824"
                         points="20.6941052 23.4347254 20.6941052 44.9148121 39.1489399 34.1748988 39.1489399 29.8793497 24.3852786 38.4707081 24.3852786 25.5827601 39.1489399 16.9911416 39.1489399 12.6950723"></polygon>
                <path d="M19.5744441,-2.60115607e-05 L1.11960947,10.7401474 L19.5744441,21.4803208 L38.0292788,10.7398873 L19.5744441,-2.60115607e-05 Z M8.50169817,10.7406676 L19.573928,4.29630347 L23.2648433,6.44407803 L12.1923554,12.8884422 L8.50169817,10.7406676 Z M15.8830127,15.0364769 L26.9555006,8.59237283 L30.646932,10.7401474 L19.5744441,17.1842514 L15.8830127,15.0364769 Z"
                      id="Fill-43" fill="#5A5B5D"></path>
            </g>
        </g>
    </g>
</svg>