<?xml version="1.0" encoding="UTF-8"?>
<svg width="15px" height="24px" viewBox="0 0 15 24" version="1.1" xmlns="http://www.w3.org/2000/svg"
     xmlns:xlink="http://www.w3.org/1999/xlink">
    <!-- Generator: sketchtool 41.2 (35397) - http://www.bohemiancoding.com/sketch -->
    <title>AD981891-6EF2-4205-A30F-01CBFBD74DF7</title>
    <desc>Created with sketchtool.</desc>
    <defs></defs>
    <g id="Main" stroke="none" stroke-width="1" fill="none" fill-rule="evenodd" opacity="0.193274457">
        <g id="Homepage#3" transform="translate(-1066.000000, -78.000000)" fill="#434343">
            <g id="Group-7" transform="translate(1053.000000, 70.000000)">
                <g id="Fill-1">
                    <path d="M24.2,30.4 L16.2,30.4 L16.2,26.4 C16.2,24.1912 17.9904,22.4 20.2,22.4 C22.4096,22.4 24.2,24.1912 24.2,26.4 L24.2,30.4 Z M14.6,15.2 C14.6,12.1072 17.1072,9.6 20.2,9.6 C23.2928,9.6 25.8,12.1072 25.8,15.2 C25.8,18.2936 23.2928,20.8 20.2,20.8 C17.1072,20.8 14.6,18.2936 14.6,15.2 L14.6,15.2 Z M23.2568,21.712 C25.7032,20.5616 27.4,18.0824 27.4,15.2 C27.4,11.224 24.1768,8 20.2,8 C16.2232,8 13,11.224 13,15.2 C13,18.0824 14.6968,20.5616 17.1432,21.712 C15.6136,22.712 14.6,24.436 14.6,26.4 L14.6,32 L16.2,32 L19.4,32 L20.2,32 L24.2,32 L25.8,32 L25.8,26.4 C25.8,24.436 24.7864,22.712 23.2568,21.712 L23.2568,21.712 Z"></path>
                </g>
            </g>
        </g>
    </g>
</svg>