<?xml version="1.0" encoding="UTF-8"?>
<svg width="20px" height="24px" viewBox="0 0 20 24" version="1.1" xmlns="http://www.w3.org/2000/svg" xmlns:xlink="http://www.w3.org/1999/xlink">
    <!-- Generator: sketchtool 41.2 (35397) - http://www.bohemiancoding.com/sketch -->
    <title>6985D6B2-0E1A-40E1-8D5F-58BA2F162FD8</title>
    <desc>Created with sketchtool.</desc>
    <defs></defs>
    <g id="Main" stroke="none" stroke-width="1" fill="none" fill-rule="evenodd">
        <g id="CollectionDetail" transform="translate(-1135.000000, -1146.000000)" fill="#000000">
            <path d="M1154.14545,1152.05455 L1148.36364,1146.43636 C1148.03636,1146.16364 1147.65455,1146 1147.21818,1146 L1136.63636,1146 C1135.70909,1146 1135,1146.70909 1135,1147.63636 L1135,1168.36364 C1135,1169.29091 1135.70909,1170 1136.63636,1170 L1153,1170 C1153.92727,1170 1154.63636,1169.29091 1154.63636,1168.36364 L1154.63636,1153.25455 C1154.63636,1152.76364 1154.47273,1152.38182 1154.14545,1152.05455 L1154.14545,1152.05455 Z M1148.41818,1148.01818 L1152.50909,1152 L1148.41818,1152 L1148.41818,1148.01818 L1148.41818,1148.01818 Z M1153.54545,1168.36364 C1153.54545,1168.69091 1153.32727,1168.90909 1153,1168.90909 L1136.63636,1168.90909 C1136.30909,1168.90909 1136.09091,1168.69091 1136.09091,1168.36364 L1136.09091,1147.63636 C1136.09091,1147.30909 1136.30909,1147.09091 1136.63636,1147.09091 L1147.21818,1147.09091 L1147.32727,1147.09091 L1147.32727,1152 C1147.32727,1152.6 1147.81818,1153.09091 1148.41818,1153.09091 L1153.54545,1153.09091 C1153.54545,1153.14545 1153.6,1153.2 1153.6,1153.25455 L1153.6,1168.36364 L1153.54545,1168.36364 Z M1144.87273,1157.34545 L1143.29091,1157.34545 L1143.29091,1161.27273 L1144.87273,1161.27273 C1146.23636,1161.27273 1146.83636,1160.29091 1146.83636,1159.30909 C1146.78182,1158.27273 1146.18182,1157.34545 1144.87273,1157.34545 Z M1144.87273,1160.45455 L1144.10909,1160.45455 L1144.10909,1158.16364 L1144.87273,1158.16364 C1145.69091,1158.16364 1145.96364,1158.70909 1145.96364,1159.30909 C1145.96364,1159.90909 1145.69091,1160.45455 1144.87273,1160.45455 Z M1147.70909,1161.27273 L1148.58182,1161.27273 L1148.58182,1159.85455 L1150.43636,1159.85455 L1150.43636,1159.09091 L1148.58182,1159.09091 L1148.58182,1158.16364 L1150.6,1158.16364 L1150.6,1157.34545 L1147.70909,1157.34545 L1147.70909,1161.27273 Z M1140.89091,1157.34545 L1139.03636,1157.34545 L1139.03636,1161.27273 L1139.90909,1161.27273 L1139.90909,1160.18182 L1140.89091,1160.18182 C1141.87273,1160.18182 1142.36364,1159.58182 1142.36364,1158.76364 C1142.41818,1158 1141.92727,1157.34545 1140.89091,1157.34545 Z M1140.89091,1159.36364 L1139.90909,1159.36364 L1139.90909,1158.16364 L1140.89091,1158.16364 C1141.32727,1158.16364 1141.49091,1158.43636 1141.49091,1158.76364 C1141.49091,1159.09091 1141.32727,1159.36364 1140.89091,1159.36364 Z" id="ic-PDF"></path>
        </g>
    </g>
</svg>